<?xml version="1.0" encoding="utf-8"?>
<!-- Generator: Adobe Illustrator 27.3.1, SVG Export Plug-In . SVG Version: 6.00 Build 0)  -->
<svg version="1.1" xmlns="http://www.w3.org/2000/svg" xmlns:xlink="http://www.w3.org/1999/xlink" x="0px" y="0px"
	 viewBox="0 0 24 24" style="enable-background:new 0 0 24 24;" xml:space="preserve">
<style type="text/css">
	.st0{fill:#2B6D35;}
	.st1{fill:none;stroke:#2B6D35;stroke-width:2;stroke-linecap:square;stroke-miterlimit:10;}
	.st2{fill:none;stroke:#2B6D35;stroke-width:2;stroke-linecap:round;stroke-miterlimit:10;}
</style>
<g id="Layer_1">
	<path class="st0" d="M16.7,7.3c-0.4-0.4-1-0.8-1.5-1V4.7h-1.1v1.4c-0.1,0-0.3,0-0.4,0c-1.1,0-2.1,0.4-2.9,1.2
		c-0.2,0.1-0.4,0.3-0.5,0.5L8.9,7.3c-1.6-0.6-3.4,0.3-4,1.9l0,0C4.7,10,4.7,10.8,5,11.6c0.3,0.5,0.6,0.9,1.1,1.2
		c-0.4,1.4-0.1,2.9,1.1,4.1c0.8,0.7,1.9,1.2,2.9,1.2c0.4,0,0.8-0.1,1.2-0.2c0.3,0.4,0.7,0.8,1.2,1.1c0.4,0.2,0.9,0.4,1.3,0.4
		c0.4,0,0.7-0.1,1.1-0.2l0,0c1.6-0.5,2.5-2.4,1.9-4l-0.5-1.3c0.2-0.2,0.4-0.4,0.5-0.5c0.9-0.9,1.3-2.1,1.2-3.3h1.4V8.9h-1.7
		C17.4,8.3,17.1,7.8,16.7,7.3z M10.5,15.9c-0.2,0-0.4,0.1-0.4,0.1c-0.5,0-1.1-0.2-1.5-0.6c-0.4-0.4-0.6-0.9-0.6-1.5
		c0-0.2,0-0.4,0.1-0.5c0.2,0,0.3,0,0.4,0c0.9,0,1.8-0.2,2.6-0.5C10.7,13.9,10.5,14.9,10.5,15.9z M7.5,11.2C7.2,11.2,7,11,6.9,10.7
		c-0.1-0.3-0.1-0.5,0-0.8C7,9.4,7.7,9.1,8.2,9.3l3.3,1.2C10.3,11.2,8.7,11.7,7.5,11.2z M14,17.1c-0.3,0.1-0.5,0.1-0.8,0
		c-0.3-0.1-0.4-0.4-0.5-0.6c-0.4-1.2,0.1-2.7,0.7-3.9l1.2,3.3C14.9,16.3,14.7,16.9,14,17.1z M15.4,11.6l-0.6-1.7l0,0
		c0,0,0-0.1-0.1-0.1c0,0,0-0.1-0.1-0.1l-0.1-0.1l-0.1-0.1l-0.1-0.1l-0.1-0.1l0,0l-1.7-0.6c0.4-0.3,0.8-0.4,1.3-0.4s1.1,0.2,1.5,0.6
		C16,9.6,16,10.7,15.4,11.6z"/>
</g>
<g id="Layer_2">
	<line class="st1" x1="4.9" y1="18.9" x2="19.1" y2="5.1"/>
	<circle class="st2" cx="12" cy="12" r="10.8"/>
</g>
</svg>
